<svg width="28" height="28" viewBox="0 0 28 28" fill="none" xmlns="http://www.w3.org/2000/svg">
<path d="M21.5231 14.0351C21.5231 18.1911 18.154 21.5602 13.998 21.5602C9.84202 21.5602 6.47292 18.1911 6.47292 14.0351C6.47292 9.87913 9.84202 6.51003 13.998 6.51003C18.154 6.51003 21.5231 9.87913 21.5231 14.0351Z" fill="white"/>
<path d="M25.5365 13.995L23.0883 11.2057L23.4294 7.51338L19.8074 6.69064L17.9111 3.5L14.4997 4.96488L11.0883 3.5L9.19199 6.69064L5.56991 7.50335L5.91105 11.1957L3.46289 13.995L5.91105 16.7843L5.56991 20.4866L9.19199 21.3094L11.0883 24.5L14.4997 23.0251L17.9111 24.49L19.8074 21.2993L23.4294 20.4766L23.0883 16.7843L25.5365 13.995ZM12.493 19.0117L8.47961 14.9983L9.89433 13.5836L12.493 16.1722L19.105 9.5602L20.5198 10.9849L12.493 19.0117Z" fill="#998F43"/>
</svg>
