<svg width="24" height="24" viewBox="0 0 24 24" fill="none" xmlns="http://www.w3.org/2000/svg">
<path d="M16.0977 12C16.0977 14.2622 14.2631 16.096 12.0001 16.096C9.73703 16.096 7.90247 14.2622 7.90247 12C7.90247 9.73789 9.73703 7.90406 12.0001 7.90406C14.2631 7.90406 16.0977 9.73789 16.0977 12Z" fill="white"/>
<path d="M18.8429 11.4293C18.752 11.2476 18.6184 11.0907 18.4536 10.9719L17.5453 10.2892C17.4981 10.2567 17.4641 10.2082 17.4497 10.1527C17.4293 10.0977 17.4293 10.0371 17.4497 9.98205L17.8253 8.86931C17.8856 8.6703 17.8996 8.46016 17.8663 8.25491C17.835 8.04581 17.7504 7.8483 17.6204 7.68148C17.4955 7.5145 17.3313 7.38086 17.1424 7.29236C16.9617 7.20563 16.762 7.16572 16.5619 7.17631H15.5375C15.4769 7.17557 15.4182 7.15521 15.3702 7.11829C15.3221 7.08136 15.2874 7.02986 15.2711 6.97151L14.9775 5.94752C14.9203 5.74 14.8123 5.54997 14.6633 5.39456C14.5142 5.24315 14.3318 5.12861 14.1306 5.06006C13.9272 4.99768 13.7121 4.98365 13.5023 5.0191C13.2945 5.06025 13.0999 5.15166 12.9355 5.28534L12.157 5.89973C12.1138 5.93861 12.058 5.96045 11.9999 5.96117C11.9474 5.96618 11.8948 5.95421 11.8496 5.92704L11.0779 5.31264C10.9195 5.18323 10.732 5.09421 10.5316 5.05323C10.334 5.00622 10.1282 5.00622 9.93059 5.05323C9.73227 5.10751 9.54969 5.20812 9.3979 5.34678C9.24251 5.49792 9.12343 5.68231 9.0496 5.88608L8.75594 6.9169C8.74104 6.97767 8.70465 7.03101 8.6535 7.06708C8.59977 7.10461 8.53432 7.12157 8.46911 7.11487H7.49935C7.28978 7.10612 7.08122 7.14829 6.89153 7.23775C6.69922 7.32377 6.53225 7.45777 6.40665 7.62687C6.28025 7.79319 6.19591 7.98757 6.1608 8.19347C6.12665 8.39349 6.14031 8.59966 6.20177 8.79422L6.53641 9.94723C6.55401 10.002 6.55428 10.061 6.53717 10.1159C6.52006 10.1709 6.48641 10.2193 6.4408 10.2544L5.5325 10.9371C5.36723 11.06 5.23201 11.2183 5.13639 11.4013C5.04667 11.5828 5 11.7825 5 11.985C5 12.1874 5.04667 12.3872 5.13639 12.5687C5.23171 12.7513 5.36712 12.91 5.5325 13.0329L6.4408 13.7155C6.48641 13.7507 6.52006 13.799 6.53717 13.854C6.55428 13.909 6.55401 13.9679 6.53641 14.0227L6.1608 15.1355C6.09717 15.3361 6.08081 15.5487 6.11299 15.7567C6.14714 15.9601 6.23182 16.1526 6.35885 16.3165C6.48382 16.4871 6.65114 16.6237 6.84373 16.7124C7.02471 16.7984 7.22412 16.838 7.42422 16.8285H8.44179C8.50339 16.8258 8.56391 16.8452 8.61253 16.8831C8.66162 16.9168 8.69585 16.9682 8.70814 17.0264L9.0018 18.0573C9.06249 18.2613 9.17007 18.4483 9.31595 18.6034C9.53867 18.8352 9.83995 18.9757 10.1608 18.9971C10.4816 19.0186 10.799 18.9196 11.0506 18.7194L11.836 18.0982C11.8834 18.06 11.9424 18.0391 12.0033 18.0391C12.0642 18.0391 12.1232 18.06 12.1706 18.0982L12.9423 18.7126C13.1062 18.8505 13.3043 18.9427 13.516 18.9788C13.5934 18.9857 13.6708 18.9857 13.7482 18.9788C13.8826 18.979 14.0162 18.9583 14.1443 18.9174C14.347 18.8537 14.5307 18.7404 14.6785 18.5878C14.8264 18.4352 14.9339 18.2482 14.9911 18.0436L15.2916 17.006C15.3039 16.9477 15.3381 16.8963 15.3872 16.8626C15.44 16.8226 15.5056 16.8032 15.5716 16.808H16.5482C16.757 16.8163 16.965 16.7766 17.156 16.6919C17.3444 16.6021 17.5084 16.4685 17.6344 16.3022C17.7603 16.1359 17.8446 15.9418 17.8799 15.7362C17.9159 15.5261 17.8995 15.3104 17.8321 15.1082L17.4633 14.0022C17.443 13.9472 17.443 13.8866 17.4633 13.8316C17.4778 13.7761 17.5117 13.7276 17.559 13.695L18.4673 13.0124C18.6319 12.8905 18.7652 12.7315 18.8565 12.5482C18.9525 12.3675 19.0018 12.1657 19 11.9611C18.9866 11.7743 18.9331 11.5934 18.8429 11.4293ZM15.1277 10.9098L12.1091 13.9271C11.9923 14.0416 11.8558 14.134 11.7062 14.2002C11.5546 14.2617 11.3921 14.2944 11.2282 14.2958C11.061 14.2969 10.8957 14.262 10.7433 14.1934C10.5905 14.1293 10.4514 14.0367 10.3335 13.9203L8.84472 12.4253C8.73284 12.2947 8.67438 12.1267 8.68102 11.9549C8.68766 11.7831 8.75891 11.6201 8.88054 11.4985C9.00216 11.377 9.16521 11.3057 9.33708 11.2991C9.50896 11.2925 9.67702 11.3509 9.80766 11.4627L11.2282 12.8827L14.1648 9.94041C14.2927 9.81326 14.4658 9.74189 14.6462 9.74189C14.8267 9.74189 14.9998 9.81326 15.1277 9.94041C15.1959 10.0043 15.2503 10.0814 15.2875 10.1672C15.3247 10.2529 15.3439 10.3453 15.3439 10.4387C15.3439 10.5322 15.3247 10.6246 15.2875 10.7103C15.2503 10.7961 15.1959 10.8732 15.1277 10.9371V10.9098Z" fill="#42A5F5"/>
</svg>
