<svg width="32" height="32" viewBox="0 0 32 32" fill="none" xmlns="http://www.w3.org/2000/svg">
<circle cx="16.0002" cy="16" r="6.66667" fill="white"/>
<path d="M26.2221 15.9644L24.0532 13.4933L24.3554 10.2222L21.1465 9.49329L19.4665 6.66663L16.4443 7.9644L13.4221 6.66663L11.7421 9.49329L8.53317 10.2133L8.83539 13.4844L6.6665 15.9644L8.83539 18.4355L8.53317 21.7155L11.7421 22.4444L13.4221 25.2711L16.4443 23.9644L19.4665 25.2622L21.1465 22.4355L24.3554 21.7066L24.0532 18.4355L26.2221 15.9644ZM14.6665 20.4088L11.1109 16.8533L12.3643 15.6L14.6665 17.8933L20.5243 12.0355L21.7776 13.2977L14.6665 20.4088Z" fill="#A190FC"/>
</svg>
