<svg width="24" height="24" viewBox="0 0 24 24" fill="none" xmlns="http://www.w3.org/2000/svg">
<path d="M5.33333 9.00229V13.5011C5.33733 14.5183 6.23922 15.3367 7.33946 15.3333H14.4567C14.6584 15.3333 14.8222 15.1831 14.8222 15.0009V10.5021C14.8168 9.48555 13.9149 8.66655 12.816 8.67056H5.69742C5.49641 8.67056 5.33333 8.82007 5.33333 9.00229ZM15.2748 10.7578L18.2141 8.78002C18.469 8.58512 18.6667 8.63385 18.6667 8.98627V15.0176C18.6667 15.4188 18.4251 15.37 18.2141 15.2239L15.2748 13.2501V10.7578Z" fill="#6346FA"/>
<path d="M17.6003 23.3333V24H6.39974V23.3333H17.6003ZM23.3333 17.6003V6.39974C23.3333 5.26877 23.333 4.46034 23.2812 3.82682C23.2301 3.20134 23.1321 2.80507 22.9701 2.48698C22.6505 1.85977 22.1402 1.34953 21.513 1.02995C21.1949 0.867922 20.7987 0.769871 20.1732 0.71875C19.5397 0.66699 18.7312 0.666667 17.6003 0.666667H6.39974C5.26877 0.666667 4.46034 0.66699 3.82682 0.71875C3.20134 0.769871 2.80507 0.867922 2.48698 1.02995C1.85977 1.34953 1.34953 1.85977 1.02995 2.48698C0.867922 2.80507 0.769871 3.20134 0.71875 3.82682C0.66699 4.46034 0.666667 5.26877 0.666667 6.39974V17.6003C0.666667 18.7312 0.66699 19.5397 0.71875 20.1732C0.769871 20.7987 0.867922 21.1949 1.02995 21.513C1.34953 22.1402 1.85977 22.6505 2.48698 22.9701C2.80507 23.1321 3.20134 23.2301 3.82682 23.2812C4.46034 23.333 5.26877 23.3333 6.39974 23.3333V24C4.29958 24 3.18393 23.9999 2.34766 23.6406L2.18424 23.5638C1.4787 23.2043 0.89639 22.6444 0.510417 21.9557L0.436198 21.8158C0.0547608 21.0671 0.00661259 20.1161 0.000651042 18.3893L0 6.39974C6.11931e-10 4.29958 9.12348e-05 3.18393 0.359375 2.34766L0.436198 2.18424C0.79569 1.4787 1.35556 0.89639 2.04427 0.510417L2.18424 0.436198C3.03985 0.000278393 4.15977 6.56263e-10 6.39974 0L18.3893 0.000651042C20.1161 0.00661258 21.0671 0.0547608 21.8158 0.436198C22.5684 0.819691 23.1803 1.4316 23.5638 2.18424C23.9997 3.03985 24 4.15977 24 6.39974L23.9993 18.3893C23.9934 20.1161 23.9452 21.0671 23.5638 21.8158C23.1803 22.5684 22.5684 23.1803 21.8158 23.5638C21.0671 23.9452 20.1161 23.9934 18.3893 23.9993L17.6003 24V23.3333C18.7312 23.3333 19.5397 23.333 20.1732 23.2812C20.7987 23.2301 21.1949 23.1321 21.513 22.9701C22.1402 22.6505 22.6505 22.1402 22.9701 21.513C23.1321 21.1949 23.2301 20.7987 23.2812 20.1732C23.333 19.5397 23.3333 18.7312 23.3333 17.6003Z" fill="#6346FA"/>
</svg>
