<svg width="8" height="11" viewBox="0 0 8 11" fill="none" xmlns="http://www.w3.org/2000/svg">
<path d="M0.836601 11L0.653595 10.9753C0.287582 10.8764 0.0261438 10.5798 0.0261438 10.1596C0.0261438 10.0112 0.0522876 9.86292 0.104575 9.68989C0.54902 8.37978 2.53595 5.53708 2.53595 5.38876C2.53595 5.38876 2.03922 4.64719 1.83007 4.57303C1.09804 4.30112 0 2.07641 0 1.45843C0 0.988765 0.366013 0.617978 0.888889 0.617978C1.6732 0.642697 1.54248 1.28539 3.00654 2.86742C3.55556 3.46067 3.18954 3.63371 3.45098 3.90562C3.50327 3.95506 3.52941 4.00449 3.55556 4.00449C3.5817 4.00449 5.85621 0.692136 6.22222 0.29663C6.43137 0.0988766 6.66667 0 6.9281 0C7.08497 0 7.24183 0.0247195 7.39869 0.0988766C7.81699 0.27191 8 0.642697 8 0.988765C8 1.48315 7.66013 1.95281 7.18954 1.97753C7.05882 1.97753 7.03268 1.97753 6.84967 2.17528C6.3268 2.81798 4.62745 5.11685 4.57516 5.19101C4.57516 5.31461 6.53595 7.29214 6.9281 7.39101C7.34641 7.53933 7.60784 7.91011 7.60784 8.2809C7.60784 8.52809 7.52941 8.75056 7.32026 8.94832C7.11111 9.14607 6.87582 9.24494 6.64052 9.24494C5.6732 9.24494 4.54902 7.71236 3.55556 6.64944C3.18954 7.21798 1.64706 9.4427 1.64706 10.1596C1.64706 10.7034 1.22876 11 0.836601 11Z" fill="black"/>
</svg>
