<svg width="24" height="24" viewBox="0 0 24 24" fill="none" xmlns="http://www.w3.org/2000/svg">
<path fill-rule="evenodd" clip-rule="evenodd" d="M2.18424 0.436198C3.03971 0.000325521 4.15951 0 6.39974 0L18.3893 0.000651042C20.1159 0.00667318 21.0671 0.0546875 21.8158 0.436198C22.5684 0.819661 23.1803 1.43164 23.5638 2.18424C24 3.03988 24 4.15983 24 6.39974V8H0V6.39974C0 4.29964 0 3.18392 0.359375 2.34766L0.436198 2.18424C0.795573 1.47868 1.35547 0.896322 2.04427 0.510417L2.18424 0.436198Z" fill="#6346FA"/>
<path d="M6.79972 17.9168H5V12.7499H6.82762C8.38319 12.7499 9.35281 13.7417 9.35281 15.3299C9.35281 16.9215 8.39017 17.9168 6.79972 17.9168ZM6.0045 17.0672H6.74391C7.83212 17.0672 8.34134 16.443 8.34134 15.3299C8.34134 14.2202 7.82514 13.5995 6.76135 13.5995H6.0045V17.0672Z" fill="#6346FA"/>
<path d="M10.066 17.9168V12.7499H13.7422V13.6099H11.0705V14.8791H13.5399V15.7217H11.0705V17.0568H13.7422V17.9168H10.066Z" fill="#6346FA"/>
<path d="M16.7329 18C15.3029 18 14.274 16.9632 14.274 15.3368C14.274 13.6966 15.3029 12.6667 16.7329 12.6667C17.9327 12.6667 18.8291 13.4053 19 14.5496H17.9816C17.849 13.9185 17.3851 13.5544 16.7469 13.5544C15.8296 13.5544 15.2855 14.2549 15.2855 15.3368C15.2855 16.4153 15.8296 17.1123 16.7469 17.1123C17.3816 17.1123 17.8455 16.7516 17.9816 16.124H19C18.8326 17.2683 17.9327 18 16.7329 18Z" fill="#6346FA"/>
<path d="M9.28205 4C9.28205 4.73638 8.69658 5.33333 7.97436 5.33333C7.25214 5.33333 6.66667 4.73638 6.66667 4C6.66667 3.26362 7.25214 2.66667 7.97436 2.66667C8.69658 2.66667 9.28205 3.26362 9.28205 4Z" fill="white"/>
<path d="M13.641 4C13.641 4.73638 13.0556 5.33333 12.3333 5.33333C11.6111 5.33333 11.0256 4.73638 11.0256 4C11.0256 3.26362 11.6111 2.66667 12.3333 2.66667C13.0556 2.66667 13.641 3.26362 13.641 4Z" fill="white"/>
<path d="M18 4C18 4.73638 17.4145 5.33333 16.6923 5.33333C15.9701 5.33333 15.3846 4.73638 15.3846 4C15.3846 3.26362 15.9701 2.66667 16.6923 2.66667C17.4145 2.66667 18 3.26362 18 4Z" fill="white"/>
<path d="M17.6003 23.3333V24H6.39974V23.3333H17.6003ZM23.3333 17.6003V6.39974C23.3333 5.26877 23.333 4.46034 23.2812 3.82682C23.2301 3.20134 23.1321 2.80507 22.9701 2.48698C22.6505 1.85977 22.1402 1.34953 21.513 1.02995C21.1949 0.867922 20.7987 0.769871 20.1732 0.71875C19.5397 0.66699 18.7312 0.666667 17.6003 0.666667H6.39974C5.26877 0.666667 4.46034 0.66699 3.82682 0.71875C3.20134 0.769871 2.80507 0.867922 2.48698 1.02995C1.85977 1.34953 1.34953 1.85977 1.02995 2.48698C0.867922 2.80507 0.769871 3.20134 0.71875 3.82682C0.66699 4.46034 0.666667 5.26877 0.666667 6.39974V17.6003C0.666667 18.7312 0.66699 19.5397 0.71875 20.1732C0.769871 20.7987 0.867922 21.1949 1.02995 21.513C1.34953 22.1402 1.85977 22.6505 2.48698 22.9701C2.80507 23.1321 3.20134 23.2301 3.82682 23.2812C4.46034 23.333 5.26877 23.3333 6.39974 23.3333V24C4.29958 24 3.18393 23.9999 2.34766 23.6406L2.18424 23.5638C1.4787 23.2043 0.89639 22.6444 0.510417 21.9557L0.436198 21.8158C0.0547608 21.0671 0.00661259 20.1161 0.000651042 18.3893L0 8V6.39974C0 4.29964 0 3.18392 0.359375 2.34766L0.436198 2.18424C0.795573 1.47868 1.35547 0.896322 2.04427 0.510417L2.18424 0.436198C3.03971 0.000325521 4.15951 0 6.39974 0L18.3893 0.000651042C20.1159 0.00667318 21.0671 0.0546875 21.8158 0.436198C22.5684 0.819661 23.1803 1.43164 23.5638 2.18424C24 3.03988 24 4.15983 24 6.39974V8L23.9993 18.3893C23.9934 20.1161 23.9452 21.0671 23.5638 21.8158C23.1803 22.5684 22.5684 23.1803 21.8158 23.5638C21.0671 23.9452 20.1161 23.9934 18.3893 23.9993L17.6003 24V23.3333C18.7312 23.3333 19.5397 23.333 20.1732 23.2812C20.7987 23.2301 21.1949 23.1321 21.513 22.9701C22.1402 22.6505 22.6505 22.1402 22.9701 21.513C23.1321 21.1949 23.2301 20.7987 23.2812 20.1732C23.333 19.5397 23.3333 18.7312 23.3333 17.6003Z" fill="#6346FA"/>
</svg>
